<?xml version="1.0" encoding="utf-8" ?><svg xmlns="http://www.w3.org/2000/svg" xmlns:xlink="http://www.w3.org/1999/xlink" width="1024" height="1024" viewBox="0 0 1024 1024"><path fill="#1D729E" d="M582.923 476.978C582.87 480.135 583.09 485.685 585.535 487.988C586.795 489.175 588.158 489.555 589.845 489.401C594.409 488.983 610.524 471.287 615.83 467.227C619.936 464.085 624.726 461.616 629.542 459.764C637.471 456.715 672.639 446.97 679.38 451.748C680.843 452.784 681.487 454.378 681.694 456.111C682.175 460.127 680.688 464.791 679.577 468.615C675.337 483.212 669.175 497.018 659.337 508.741C652.186 517.262 640.553 526.137 629.041 527.028C621.581 527.605 611.729 525.759 606.291 532.059C604.068 534.634 602.206 537.712 600.528 540.663C597.163 547.881 596.175 550.822 596.143 558.801C596.459 567.834 596.625 576.871 596.641 585.909C596.861 609.289 595.762 607.85 584.477 627.148C582.15 638.441 582.927 659.655 583.465 670.618C584.854 695.61 605.221 715.623 620.086 734.183C631.21 748.071 630.566 745.754 625.046 763.731C609.601 814.031 568.788 848.169 522.022 869.043C475.723 847.524 437.071 816.462 420.185 766.996C417.472 759.048 415.984 754.603 415.091 746.128L415.648 745.274C430.29 723.143 456.507 704.664 461.203 676.544C462.165 670.784 461.55 664.202 461.945 658.364C462.661 648.128 462.729 639.645 462.403 629.384C447.989 606.44 449.602 602.347 449.944 575.286C450.098 566.464 449.933 557.64 449.449 548.83C447.286 546.167 444.353 542.761 443.231 539.541C441.293 536.918 439.02 533.329 437.152 530.564C433.42 530.397 428.804 529.647 425.139 529.616C409.191 529.481 401.011 527.257 389.524 515.544C372.057 497.733 367.392 477.522 367.42 453.461C391.531 451.285 417.501 458.579 436.864 473.178C443.298 478.028 453.949 492.711 461.769 491.418C465.65 488.769 464.154 480.635 467.123 476.619C468.395 476.299 469.53 475.468 470.668 474.766L476.652 471.324C480.2 468.63 485.847 465.138 489.592 462.92L492.776 460.815C498.185 463.715 506.707 469.029 512.489 469.333C521.619 469.815 531.463 469.549 540.631 469.439C544.65 466.481 550.676 461.386 555.378 460.35L560.575 463.511C563.74 465.545 567.007 467.766 570.395 469.367L573.532 471.135L578.566 474.562L582.923 476.978Z"/><path fill="#2DA6D9" d="M582.923 476.978C582.87 480.135 583.09 485.685 585.535 487.988C586.795 489.175 588.158 489.555 589.845 489.401C594.409 488.983 610.524 471.287 615.83 467.227C619.936 464.085 624.726 461.616 629.542 459.764C637.471 456.715 672.639 446.97 679.38 451.748C680.843 452.784 681.487 454.378 681.694 456.111C682.175 460.127 680.688 464.791 679.577 468.615C675.337 483.212 669.175 497.018 659.337 508.741C652.186 517.262 640.553 526.137 629.041 527.028C621.581 527.605 611.729 525.759 606.291 532.059C604.068 534.634 602.206 537.712 600.528 540.663C600.035 538.529 599.692 535.325 599.383 533.081L596.697 537.726C595.903 539.794 595.091 541.654 594.648 543.825L594.683 544.476C594.106 546.341 594.216 546.426 592.715 547.77C592.158 551.607 591.584 555.951 590.542 559.645C588.327 567.506 577.174 577.868 570.275 581.69L567.883 581.295C568.119 582.222 569.284 582.869 570.214 583.642C565.898 588.547 566.584 593.46 563.512 599.527C560.671 605.136 557.738 610.419 554.695 615.911C553.438 618.998 553.346 621.293 553.147 624.608L552.043 626.112C552.781 638.526 553.124 641.842 542.095 648.329C542.104 645.754 546.307 640.026 546.753 634.261C547.08 625.419 552.636 620.899 542.003 614.481C534.796 614.314 529.414 617.514 523.854 617.412C510.399 617.166 502.813 607.195 497.042 625.37L493.457 624.952C499.248 607.901 513.668 594.51 507.139 574.533C506.025 571.125 506.263 568.866 503.817 565.269C503.615 565.512 503.414 565.755 503.212 565.998C503.092 574.615 504.874 584.388 503.378 592.837C501.7 602.317 497.211 609.373 492.289 617.139C489.119 610.188 485.677 606.403 482.534 599.99C480.7 596.248 481.072 589.334 477.988 585.4L476.753 583.159C468.979 575.977 458.179 570.106 455.255 559.552C454.134 555.506 453.898 551.755 452.823 547.594L452.659 546.978L451.358 545.676C451.79 543.395 450.423 541.015 449.486 538.85C448.727 537.942 446.082 533.983 445.013 532.575L444.527 532.459C442.927 534.164 442.768 533.802 442.356 535.739L442.52 536.152C443.115 537.688 443.217 537.833 443.231 539.541C441.293 536.918 439.02 533.329 437.152 530.564C433.42 530.397 428.804 529.647 425.139 529.616C409.191 529.481 401.011 527.257 389.524 515.544C372.057 497.733 367.392 477.522 367.42 453.461C391.531 451.285 417.501 458.579 436.864 473.178C443.298 478.028 453.949 492.711 461.769 491.418C465.65 488.769 464.154 480.635 467.123 476.619C468.395 476.299 469.53 475.468 470.668 474.766L476.652 471.324C480.2 468.63 485.847 465.138 489.592 462.92L492.776 460.815C498.185 463.715 506.707 469.029 512.489 469.333C521.619 469.815 531.463 469.549 540.631 469.439C544.65 466.481 550.676 461.386 555.378 460.35L560.575 463.511C563.74 465.545 567.007 467.766 570.395 469.367L573.532 471.135L578.566 474.562L582.923 476.978Z"/><path fill="#1D729E" d="M582.923 476.978C582.87 480.135 583.09 485.685 585.535 487.988C586.795 489.175 588.158 489.555 589.845 489.401C594.409 488.983 610.524 471.287 615.83 467.227C619.936 464.085 624.726 461.616 629.542 459.764C637.471 456.715 672.639 446.97 679.38 451.748C680.843 452.784 681.487 454.378 681.694 456.111C682.175 460.127 680.688 464.791 679.577 468.615C675.337 483.212 669.175 497.018 659.337 508.741C652.186 517.262 640.553 526.137 629.041 527.028C621.581 527.605 611.729 525.759 606.291 532.059C604.068 534.634 602.206 537.712 600.528 540.663C600.035 538.529 599.692 535.325 599.383 533.081C599.712 532.266 600.404 530.593 600.08 529.748C594.013 513.901 583.194 501.428 578.966 484.644C577.412 478.473 559.247 468.43 552.947 465.719C549.441 467.958 545.675 471.904 542.817 474.974C540.262 475.093 537.226 475.154 534.722 475.426C533.671 483.57 534.685 488.037 531.32 495.776C532.484 496.843 532.63 497.212 534.172 497.448C538.937 494.446 535.366 482.214 538.399 479.407C541.427 480.639 541.146 492.064 541.005 495.256C537.163 502.377 531.747 506.904 525.811 512.289C525.64 505.218 525.327 497.565 525.983 490.509C526.163 488.564 528.439 485.983 528.649 483.95C529.046 475.435 516.898 477.578 519.191 485.576C519.917 488.105 521.996 489.915 521.8 492.744C522.142 499.368 522.112 506.233 521.712 512.861C517.345 508.796 513.113 504.588 509.023 500.244C509.651 499.711 510.383 499.249 511.065 498.78C513.61 497.959 515.427 497.764 516.613 495.561C516.434 493.745 515.347 492.8 514.161 491.334C513.88 485.923 514.15 481.253 513.572 475.649C510.388 475.328 508.703 475.292 505.51 475.35C501.665 470.987 500.63 469.518 495.623 466.625C489.243 469.274 471.092 478.112 469.11 485.11C465.051 499.439 456.973 510.274 449.602 522.916C447.908 525.821 446.087 529.45 445.013 532.575L444.527 532.459C442.927 534.164 442.768 533.802 442.356 535.739L442.52 536.152C443.115 537.688 443.217 537.833 443.231 539.541C441.293 536.918 439.02 533.329 437.152 530.564C433.42 530.397 428.804 529.647 425.139 529.616C409.191 529.481 401.011 527.257 389.524 515.544C372.057 497.733 367.392 477.522 367.42 453.461C391.531 451.285 417.501 458.579 436.864 473.178C443.298 478.028 453.949 492.711 461.769 491.418C465.65 488.769 464.154 480.635 467.123 476.619C468.395 476.299 469.53 475.468 470.668 474.766L476.652 471.324C480.2 468.63 485.847 465.138 489.592 462.92L492.776 460.815C498.185 463.715 506.707 469.029 512.489 469.333C521.619 469.815 531.463 469.549 540.631 469.439C544.65 466.481 550.676 461.386 555.378 460.35L560.575 463.511C563.74 465.545 567.007 467.766 570.395 469.367L573.532 471.135L578.566 474.562L582.923 476.978Z"/><path fill="#248BBE" d="M370.575 455.978C377.456 456.134 380.821 457.417 387.025 458.207C404.377 460.418 423.363 466.48 436.963 477.768C444.657 484.153 450.018 493.057 460.36 497.145C456.819 504.735 453.024 511.119 448.854 518.356C448.377 520.455 444.738 528.533 442.872 529.571C441.538 528.614 439.403 526.178 438.579 525.91C434.341 524.531 427.903 524.794 423.624 524.511C414.889 523.932 400.372 517.241 393.872 511.691C377.689 497.874 372.836 475.808 370.575 455.978Z"/><path fill="#2DA6D9" d="M387.157 471.782C394.868 472.099 396.867 473.739 403.655 476.14C418.307 481.324 424.199 495.79 433.744 507.057C436.116 509.857 440.356 512.907 441.556 515.826C407.412 518.502 395.843 502.58 387.157 471.782Z"/><path fill="#66A6B5" d="M379.996 463.649C382.88 463.4 385.782 463.466 388.651 463.846C402.5 465.656 418.308 472.729 425.983 484.886C429.017 489.692 431.559 495.016 434.892 499.75C437.125 502.922 443.48 506.415 445.137 508.562C430.535 503.719 426.701 483.014 413.298 475.738C405.071 471.271 396.19 468.976 387.054 467.521C384.086 467.049 381.43 466.575 379.996 463.649Z"/><path fill="#2DA6D9" d="M669.26 454.691C671.192 454.311 673.631 454.405 675.557 454.866C681.42 460.202 665.431 492.819 660.95 498.899C653.113 509.53 638.648 520.409 625.317 522.711C618.434 523.9 611.435 524.173 604.479 525.355C603.265 524.172 601.943 522.288 600.894 520.899C596.188 512.176 591.652 503.625 588.374 494.255C598.705 487.317 604.509 481.491 613.597 473.314C627.514 460.791 651.005 457.1 669.26 454.691Z"/><path fill="#248BBE" d="M641.68 466.3C645.539 466.722 659.81 462.027 665.868 462.767L666.419 463.627C666.01 475.335 653.961 499.004 644.703 507.465C629.804 521.083 620.496 517.639 603.649 520.466C601.353 515.595 599.205 510.996 597.115 506.022C600.831 502.828 605 499.555 608.014 495.7C613.947 488.108 617.902 478.801 625.45 472.569C629.714 469.049 635.989 465.339 641.68 466.3Z"/><path fill="#66A6B5" d="M641.68 466.3C645.539 466.722 659.81 462.027 665.868 462.767L666.419 463.627C650.61 466.42 632.957 469.637 623.059 483.789C616.612 493.006 613.592 501.75 602.945 506.963C615.041 495.933 617.772 482.974 629.898 472.774C632.733 470.389 638.231 468.408 641.68 466.3Z"/><path fill="#2DA6D9" d="M657.204 469.118C658.559 468.999 658.549 469.018 659.895 469.27L660.339 470C659.474 473.377 657.956 476.271 656.676 479.443C646.586 504.467 634.919 516.537 606.876 515.008L605.263 514.911C604.066 514.015 603.739 513.965 603.235 512.569C603.957 510.43 609.223 508.496 611.909 505.884C616.267 501.645 618.309 498.122 621.504 492.974C629.787 479.626 641.829 472.3 657.204 469.118Z"/><path fill="#248BBE" d="M654.245 459.034C654.477 459.011 655.531 459.121 655.805 459.144L655.696 459.603C652.253 461.556 646.971 462.705 643.098 463.475C642.507 463.575 642.003 463.521 641.39 463.51C642.414 462.193 652.009 459.675 654.245 459.034Z"/><path fill="#66A6B5" d="M534.722 475.426C537.226 475.154 540.262 475.093 542.817 474.974C544.005 483.967 543.606 489.198 544.097 497.67C545.343 501.606 546.242 503.136 544.821 507.038C551.875 504.128 551.678 493.462 551.435 487.157C549.145 484.02 548.082 483.174 548.649 479.413C554.868 471.204 559.396 477.025 561.5 484.261L561.701 484.968C562.87 485.512 569.506 486.015 571.527 486.295C570.751 492.267 567.789 500.265 565.076 505.624C559.417 512.205 543.002 527.336 539.202 533.439C538.42 538.925 538.647 543.05 539.858 548.503C541.919 557.778 541.104 559.548 532.113 560.32C532.011 573.816 529.419 588.791 535.348 601.275C536.512 604.318 537.281 605.905 534.696 608.424C531.795 611.252 525.122 607.498 523.094 608.096C506.382 613.023 514.29 600.426 515.33 590.602C516.255 581.855 515.255 569.701 514.919 559.779C513.24 559.733 509.811 559.826 508.571 558.837C502.364 553.888 509.463 543.971 508.163 537.055L507.207 536.355L505.458 535.724C503.526 534.556 489.327 520.048 485.918 516.936C482.496 512.616 473.571 506.833 473.802 502.542C475.456 500.293 477.937 500.311 480.803 499.755C479.817 494.119 473.949 485.401 484.196 484.31C485.371 484.193 486.549 484.101 487.728 484.035C487.674 479.641 489.464 475.695 494.373 475.301C504.616 478.407 489.697 494.564 497.927 502.237C499.823 500.723 501.544 499.752 503.609 498.505C503.587 494.806 503.612 491.108 503.684 487.41C503.746 483.702 503.219 477.569 505.51 475.35C508.703 475.292 510.388 475.328 513.572 475.649C514.15 481.253 513.88 485.923 514.161 491.334C515.347 492.8 516.434 493.745 516.613 495.561C515.427 497.764 513.61 497.959 511.065 498.78C510.383 499.249 509.651 499.711 509.023 500.244C513.113 504.588 517.345 508.796 521.712 512.861C522.112 506.233 522.142 499.368 521.8 492.744C521.996 489.915 519.917 488.105 519.191 485.576C516.898 477.578 529.046 475.435 528.649 483.95C528.439 485.983 526.163 488.564 525.983 490.509C525.327 497.565 525.64 505.218 525.811 512.289C531.747 506.904 537.163 502.377 541.005 495.256C541.146 492.064 541.427 480.639 538.399 479.407C535.366 482.214 538.937 494.446 534.172 497.448C532.63 497.212 532.484 496.843 531.32 495.776C534.685 488.037 533.671 483.57 534.722 475.426Z"/><path fill="#1D729E" d="M485.918 516.936C482.496 512.616 473.571 506.833 473.802 502.542C475.456 500.293 477.937 500.311 480.803 499.755C481.456 501.896 482.044 504.324 483.312 506.188C486.623 511.056 509.993 531.501 507.789 535.712C507.655 535.968 507.401 536.141 507.207 536.355L505.458 535.724C503.526 534.556 489.327 520.048 485.918 516.936Z"/><path fill="#1D729E" d="M497.927 502.237C499.823 500.723 501.544 499.752 503.609 498.505C510.19 506.991 515.247 510.615 521.285 517.617C521.075 520.098 520.822 522.436 520.864 524.93C514.312 519.293 503.628 508.89 497.927 502.237Z"/><path fill="#1D729E" d="M544.097 497.67C545.343 501.606 546.242 503.136 544.821 507.038C543.154 507.592 532.602 521.821 527.507 523.692C525.698 523.288 526.402 523.742 525.275 522.36C524.529 515.036 538.194 507.186 543.69 498.332L544.097 497.67Z"/><path fill="#3B7288" d="M509.023 500.244C506.41 496.857 506.397 483.17 507.486 479.321L508.406 478.905L509.349 479.425C511.332 483.243 510.385 492.693 510.982 498.061L511.065 498.78C510.383 499.249 509.651 499.711 509.023 500.244Z"/><path fill="#2DA6D9" d="M491.483 487.867C493.546 489.561 491.769 498.822 493.636 501.541C500.061 510.893 508.806 516.692 515.822 525.985C514.585 527.231 513.361 528.49 512.15 529.762L511.106 529.61C505.052 524.355 487.202 508.88 485.158 500.893C484.177 497.062 489.101 491.244 491.483 487.867Z"/><path fill="#2DA6D9" d="M556.895 488.313C558.386 490.149 562.617 498.701 562.121 500.387C559.791 508.296 541.474 525.681 535.769 530.255C533.457 530.985 532.963 531.595 531.438 529.668C530.231 521.884 549.673 510.065 553.035 503.154C554.967 499.18 555.961 492.701 556.895 488.313Z"/><path fill="#2DA6D9" d="M493.175 478.623C495.066 479.046 494.366 478.57 495.521 479.795C495.703 481.491 494.539 483.133 493.689 484.721C492.028 483.821 492.652 484.446 491.757 482.772C491.734 481.004 492.355 480.194 493.175 478.623Z"/><path fill="#FEFEFE" d="M461.58 541.715C468.043 540.715 472.654 540.178 479.075 542.831C480.534 543.434 482.917 544.873 484.1 545.327C491.338 553.956 495.042 559.477 495.708 571.267C493.425 570.796 490.261 570.037 488.024 569.791C488.208 571.839 488.425 570.922 487.407 572.654C485.634 573.66 485.049 573.927 483.142 574.645L483.957 574.745L483.82 574.271L484.646 574.785C486.555 574.827 489.135 574.69 490.947 575.04C487.254 577.953 485.287 578.347 480.797 579.838L482.604 580.219L482.818 581.276C480.789 581.774 478.55 582.166 476.753 583.159C468.979 575.977 458.179 570.106 455.255 559.552C454.134 555.506 453.898 551.755 452.823 547.594L452.659 546.978L451.358 545.676C454.983 543.382 457.52 542.711 461.58 541.715Z"/><path fill="#8CCBE5" d="M452.659 546.978C455.607 547.932 456.603 548.595 459.201 550.133C462.817 567.617 471.203 571.69 488.024 569.791C488.208 571.839 488.425 570.922 487.407 572.654C485.634 573.66 485.049 573.927 483.142 574.645L483.957 574.745L483.82 574.271L484.646 574.785C486.555 574.827 489.135 574.69 490.947 575.04C487.254 577.953 485.287 578.347 480.797 579.838L482.604 580.219L482.818 581.276C480.789 581.774 478.55 582.166 476.753 583.159C468.979 575.977 458.179 570.106 455.255 559.552C454.134 555.506 453.898 551.755 452.823 547.594L452.659 546.978Z"/><path fill="#FEFEFE" d="M550.492 566.062C555.372 542.362 573.413 534.655 594.683 544.476C594.106 546.341 594.216 546.426 592.715 547.77C592.158 551.607 591.584 555.951 590.542 559.645C588.327 567.506 577.174 577.868 570.275 581.69L571.718 579.83C566.213 577.19 557.202 575.905 553.568 571.548L557.793 570.398C554.827 570.311 552.8 571.399 551.023 570.851C549.992 568.936 550.419 568.619 550.492 566.062Z"/><path fill="#8CCBE5" d="M587.104 549.932L592.715 547.77C592.158 551.607 591.584 555.951 590.542 559.645C588.327 567.506 577.174 577.868 570.275 581.69L571.718 579.83C566.213 577.19 557.202 575.905 553.568 571.548L557.793 570.398C564.159 570.126 566.836 571.057 573.46 568.676C580.581 566.117 583.989 556.636 587.104 549.932Z"/><path fill="#75B6C8" d="M479.838 514.685C482.027 515.789 483.496 516.821 485.918 516.936C489.327 520.048 503.526 534.556 505.458 535.724C504.069 537.056 501.437 546.819 496.898 543.892C491.342 540.24 478.398 519.812 469.546 525.625C461.537 530.884 454.336 524.229 458.758 517.566C459.619 516.27 460.998 515.411 462.541 515.21C465.656 514.777 468.316 517.458 470.665 519.346C473.482 518.155 477.063 516.146 479.838 514.685Z"/><path fill="#75B6C8" d="M577.076 519.233C579.548 517.482 582.623 514.696 585.535 515.056C589.215 517.329 590.737 520.621 589.478 524.891C585.051 529.792 577.33 523.517 573.896 524.8C568.479 526.823 561.113 534.235 556.654 538.348C548.632 545.748 548.001 547.501 541.491 536.854C544.549 533.549 548.161 530.474 551.534 526.819C554.567 525.674 563.834 517.947 568.745 515.061C572.007 517.457 573.008 518.229 577.076 519.233Z"/><path fill="#75B6C8" d="M449.486 538.85L450.868 537.202C452.151 537.22 455.654 537.624 456.815 537.342C459.676 536.649 465.537 532.626 468.473 532.598C477.963 532.507 487.278 539.189 493.608 545.591C498.903 550.945 500.584 557.299 500.746 564.405C500.7 567.748 499.237 571.831 498.751 575.726L497.853 576.093C497.465 572.808 499.132 571.525 498.143 569.553C495.732 570.399 493.238 574.042 490.947 575.04C489.135 574.69 486.555 574.827 484.646 574.785L483.82 574.271L483.957 574.745L483.142 574.645C485.049 573.927 485.634 573.66 487.407 572.654C488.425 570.922 488.208 571.839 488.024 569.791C490.261 570.037 493.425 570.796 495.708 571.267C495.042 559.477 491.338 553.956 484.1 545.327C482.917 544.873 480.534 543.434 479.075 542.831C472.654 540.178 468.043 540.715 461.58 541.715C457.52 542.711 454.983 543.382 451.358 545.676C451.79 543.395 450.423 541.015 449.486 538.85Z"/><path fill="#8CCBE5" d="M461.58 541.715C465.934 535.082 481.106 536.596 484.1 545.327C482.917 544.873 480.534 543.434 479.075 542.831C472.654 540.178 468.043 540.715 461.58 541.715Z"/><path fill="#75B6C8" d="M553.568 571.548C552.183 572.293 552.295 572.275 550.728 572.154C549.999 571.616 550.042 571.55 549.591 570.874C539.442 555.658 551.433 544.821 562.828 535.779C563.318 535.391 564.675 536.17 565.309 536.422C567.856 534.965 572.012 532.904 574.726 531.747C578.955 532.181 593.085 535.688 595.814 538.111L596.697 537.726C595.903 539.794 595.091 541.654 594.648 543.825L594.683 544.476C573.413 534.655 555.372 542.362 550.492 566.062C550.419 568.619 549.992 568.936 551.023 570.851C552.8 571.399 554.827 570.311 557.793 570.398L553.568 571.548Z"/><path fill="#8CCBE5" d="M550.492 566.062C550.185 565.318 549.883 564.572 549.587 563.824C549 562.383 547.71 559.293 548.306 557.356C549.356 553.441 557.754 541.611 561.345 539.698C566.214 537.104 581.068 535.835 586.617 538.066C591.095 539.865 592.517 540.007 594.648 543.825L594.683 544.476C573.413 534.655 555.372 542.362 550.492 566.062Z"/><defs><linearGradient id="gradient_0" gradientUnits="userSpaceOnUse" x1="540.44141" y1="597.07996" x2="552.37866" y2="592.38422"><stop offset="0" stop-color="#127BB3"/><stop offset="1" stop-color="#3D9CC2"/></linearGradient></defs><path fill="url(#gradient_0)" d="M552.043 626.112L551.585 625.693C551.325 623.241 550.988 619.02 549.898 616.951C544.759 607.192 537.994 597.817 537.919 586.338C537.888 581.62 538.571 568.574 541.805 565.204L542.685 565.284C543.238 567.177 542.968 574.401 542.878 576.733C542.161 595.271 545.121 601.14 554.695 615.911C553.438 618.998 553.346 621.293 553.147 624.608L552.043 626.112Z"/><path fill="#1D729E" d="M566.826 504.768C569.272 505.24 569.666 505.865 570.804 508.055C564.972 513.093 555.939 520.663 551.534 526.819C548.161 530.474 544.549 533.549 541.491 536.854L539.202 533.439C543.002 527.336 559.417 512.205 565.076 505.624L566.826 504.768Z"/><path fill="#1D729E" d="M572.375 499.007C574.397 500.907 572.375 501.821 574.376 504.517C572.871 506.447 572.75 506.635 570.804 508.055C569.666 505.865 569.272 505.24 566.826 504.768C568.346 502.995 570.698 500.755 572.375 499.007Z"/><path fill="#248BBE" d="M572.375 499.007C573.598 498.039 572.908 498.403 574.664 498.286C578.122 500.248 576.106 502.159 574.376 504.517C572.375 501.821 574.397 500.907 572.375 499.007Z"/><path fill="#66A6B5" d="M596.697 537.726L599.383 533.081C599.692 535.325 600.035 538.529 600.528 540.663C597.163 547.881 596.175 550.822 596.143 558.801C595.972 563.415 596.123 568.085 595.737 572.619L595.692 572.022C595.575 570.581 595.669 569.786 594.872 568.608C592.102 569.671 592.493 572.307 590.492 573.791L590.002 574.578C589.294 575.699 588.706 576.387 587.853 577.386L589.576 577.67L589.362 579.088C591.073 580.729 591.984 580.486 593.261 582.614L593.273 583.108C592.959 586.192 592.911 587.042 590.562 589.122L590.503 589.607C590.407 590.608 590.44 591.449 590.044 592.323C585.76 594.856 578.286 607.396 574.203 612.276C573.631 613.111 572.815 614.502 572.081 615.058C571.243 619.736 569.798 620.401 568.228 624.132C568.237 627.251 567.749 629.273 565.944 631.887C563.891 630.51 564.026 631.061 563.295 629.164C562.913 631.847 560.181 633.837 557.754 634.637C556.874 629.803 555.875 628.53 553.147 624.608C553.346 621.293 553.438 618.998 554.695 615.911C557.738 610.419 560.671 605.136 563.512 599.527C566.584 593.46 565.898 588.547 570.214 583.642C569.284 582.869 568.119 582.222 567.883 581.295L570.275 581.69C577.174 577.868 588.327 567.506 590.542 559.645C591.584 555.951 592.158 551.607 592.715 547.77C594.216 546.426 594.106 546.341 594.683 544.476L594.648 543.825C595.091 541.654 595.903 539.794 596.697 537.726Z"/><path fill="#1D729E" d="M570.214 583.642C571.405 583.619 572.595 583.58 573.784 583.523L574.231 583.97C568.304 593.426 572.207 594.045 570.006 598.89C566.234 607.196 556.652 614.763 559.004 626.524C559.265 627.83 559.082 627.541 559.834 628.348C562.861 626.563 562.928 619.413 563.537 616.254C564.589 610.801 569.289 607.017 573.222 603.502L575.065 602.841C578.822 600.09 580.914 594.148 583.186 589.716C585.994 589.86 587.703 590.066 590.503 589.607C590.407 590.608 590.44 591.449 590.044 592.323C585.76 594.856 578.286 607.396 574.203 612.276C573.631 613.111 572.815 614.502 572.081 615.058C571.243 619.736 569.798 620.401 568.228 624.132C568.237 627.251 567.749 629.273 565.944 631.887C563.891 630.51 564.026 631.061 563.295 629.164C562.913 631.847 560.181 633.837 557.754 634.637C556.874 629.803 555.875 628.53 553.147 624.608C553.346 621.293 553.438 618.998 554.695 615.911C557.738 610.419 560.671 605.136 563.512 599.527C566.584 593.46 565.898 588.547 570.214 583.642Z"/><path fill="#66A6B5" d="M564.116 621.763C565.343 618.242 568.095 609.629 572.708 610.231L574.203 612.276C573.631 613.111 572.815 614.502 572.081 615.058C569.355 617.484 566.975 619.497 564.116 621.763Z"/><path fill="#66A6B5" d="M563.295 629.164C563.401 627.409 563.322 625.846 564.069 624.286C565.766 623.476 565.984 623.883 568.228 624.132C568.237 627.251 567.749 629.273 565.944 631.887C563.891 630.51 564.026 631.061 563.295 629.164Z"/><path fill="#248BBE" d="M573.222 603.502C573.669 600.165 573.202 596.257 573.47 593.344C574 587.581 586.194 577.278 590.492 573.791L590.002 574.578C589.294 575.699 588.706 576.387 587.853 577.386L589.576 577.67L589.362 579.088C591.073 580.729 591.984 580.486 593.261 582.614L593.273 583.108C592.959 586.192 592.911 587.042 590.562 589.122L590.503 589.607C587.703 590.066 585.994 589.86 583.186 589.716C580.914 594.148 578.822 600.09 575.065 602.841L573.222 603.502Z"/><path fill="#66A6B5" d="M575.065 602.841C576.436 592.954 576.467 587.144 587.334 585.514C589.884 586.778 587.977 587.366 590.562 589.122L590.503 589.607C587.703 590.066 585.994 589.86 583.186 589.716C580.914 594.148 578.822 600.09 575.065 602.841Z"/><path fill="#66A6B5" d="M587.334 585.514C587.354 583.384 586.146 583.66 586.48 579.867L587.308 579.501C590.185 580.39 591 581.248 593.273 583.108C592.959 586.192 592.911 587.042 590.562 589.122C587.977 587.366 589.884 586.778 587.334 585.514Z"/><path fill="#2DA6D9" d="M574.203 612.276C578.286 607.396 585.76 594.856 590.044 592.323C597.272 603.78 570.27 640.39 561.142 649.051C561.108 643.59 563.1 636.56 565.944 631.887C567.749 629.273 568.237 627.251 568.228 624.132C569.798 620.401 571.243 619.736 572.081 615.058C572.815 614.502 573.631 613.111 574.203 612.276Z"/><path fill="#248BBE" d="M553.147 624.608C555.875 628.53 556.874 629.803 557.754 634.637C560.181 633.837 562.913 631.847 563.295 629.164C564.026 631.061 563.891 630.51 565.944 631.887C563.1 636.56 561.108 643.59 561.142 649.051C556.917 654.954 542.517 657.67 537.283 652.413C538.024 649.922 538.372 648.873 539.485 646.537C542.678 640.636 539.852 641.349 546.753 634.261C546.307 640.026 542.104 645.754 542.095 648.329C553.124 641.842 552.781 638.526 552.043 626.112L553.147 624.608Z"/><path fill="#66A6B5" d="M553.147 624.608C555.875 628.53 556.874 629.803 557.754 634.637C556.924 641.48 555.908 644.793 551.284 650.245C548.605 651.277 543.045 652.896 541.317 649.822L542.095 648.329C553.124 641.842 552.781 638.526 552.043 626.112L553.147 624.608Z"/><path fill="#248BBE" d="M539.485 646.537C542.678 640.636 539.852 641.349 546.753 634.261C546.307 640.026 542.104 645.754 542.095 648.329L541.317 649.822C543.045 652.896 548.605 651.277 551.284 650.245C550.183 651.73 549.214 652.239 547.373 652.616C545.17 653.045 542.89 652.475 541.149 651.058C539.633 649.84 539.812 648.508 539.485 646.537Z"/><path fill="#66A6B5" d="M443.231 539.541C443.217 537.833 443.115 537.688 442.52 536.152L442.356 535.739C442.768 533.802 442.927 534.164 444.527 532.459L445.013 532.575C446.082 533.983 448.727 537.942 449.486 538.85C450.423 541.015 451.79 543.395 451.358 545.676L452.659 546.978L452.823 547.594C453.898 551.755 454.134 555.506 455.255 559.552C458.179 570.106 468.979 575.977 476.753 583.159L477.988 585.4C475.641 585.084 475.513 584.678 473.667 585.457C471.266 584.742 460.286 570.635 454.717 569.675L454.546 570.218C456.555 574.383 463.156 580.033 466.694 583.415L465.934 583.868C463 583.926 455.251 577.439 452.873 575.243C453.091 575.445 452.518 572.272 452.359 571.837C451.443 572.715 452.736 574.243 451.596 576.106L449.944 575.286C450.098 566.464 449.933 557.64 449.449 548.83C447.286 546.167 444.353 542.761 443.231 539.541Z"/><defs><linearGradient id="gradient_1" gradientUnits="userSpaceOnUse" x1="493.23697" y1="605.14447" x2="449.08569" y2="594.06201"><stop offset="0" stop-color="#4B9BB2"/><stop offset="1" stop-color="#93BED0"/></linearGradient></defs><path fill="url(#gradient_1)" d="M466.694 583.415C463.156 580.033 456.555 574.383 454.546 570.218L454.717 569.675C460.286 570.635 471.266 584.742 473.667 585.457C476.689 590.284 476.529 595.705 477.132 601.454C487.075 610.951 487.427 614.518 488.397 628.361C487.528 629.709 488.13 629.259 486.442 629.628C482.009 626.402 487.096 614.145 475.191 605.144C474.392 604.547 473.571 603.98 472.729 603.444L471.482 602.901C471.154 595.705 469.849 591.058 465.021 586.004C466.383 586.279 465.771 586.399 466.923 585.663L467.02 585.116L465.934 583.868L466.694 583.415Z"/><path fill="#1D729E" d="M466.694 583.415C469.495 586.203 470.952 587.552 472.963 591.059C473.033 593.867 472.564 602.038 472.729 603.444L471.482 602.901C471.154 595.705 469.849 591.058 465.021 586.004C466.383 586.279 465.771 586.399 466.923 585.663L467.02 585.116L465.934 583.868L466.694 583.415Z"/><path fill="#66A6B5" d="M493.457 624.952L497.042 625.37C497.125 638.287 498.782 642.106 508.594 650.29C505.772 651.162 499.437 651.947 496.448 651.838C488.226 643.244 491.881 638.374 490.718 628.955C491.552 627.627 492.552 626.25 493.457 624.952Z"/><path fill="#75B6C8" d="M471.482 602.901C466.41 599.822 468.916 597.138 466.673 592.988C464.228 588.465 456.674 591.771 453.961 586.302C453.929 583.888 455.296 580.635 457.71 579.89C459.742 581.019 459.911 582.43 460.597 584.735L460.783 585.375C462.697 586.595 461.879 584.563 465.021 586.004C469.849 591.058 471.154 595.705 471.482 602.901Z"/><path fill="#2DA6D9" d="M490.718 628.955C491.881 638.374 488.226 643.244 496.448 651.838C494.719 652.077 494.047 652.087 492.415 652.799C486.8 645.996 484.755 636.207 490.718 628.955Z"/><path fill="#248BBE" d="M508.594 650.29C509.42 654.157 500.581 655.714 497.815 656.358C495.311 655.111 494.453 654.782 492.415 652.799C494.047 652.087 494.719 652.077 496.448 651.838C499.437 651.947 505.772 651.162 508.594 650.29Z"/><path fill="#66A6B5" d="M533.301 688.865L533.246 688.161C533.119 686.338 532.848 685.488 533.781 683.959L534.952 683.208C537.663 684.046 538.87 687.932 537.598 690.173C535.844 693.263 532.696 695.68 530.748 698.888C530.351 718.27 530.897 736.776 531.04 756.084C533.624 759.906 540.662 766.437 544.332 769.994C544.788 781.722 544.019 795.268 544.677 806.27C550.8 801.651 558.438 795.466 564.711 791.469C566.222 791.709 566.834 791.862 568.396 791.754C565.252 808.039 550.545 846.17 536.82 855.338C533.24 857.73 529.191 859.777 525.213 861.415C524.799 849.82 524.871 837.8 524.795 826.169C527.8 823.919 529.257 822.363 531.963 820.091L532.525 797.259C529.722 794.338 526.081 790.076 523.255 787.559C519.691 790.89 517.55 793.227 514.526 797.114C514.517 804.772 514.772 814.442 514.358 821.938C515.572 822.382 519.43 825.869 520.845 826.991C521.21 838.168 521.044 850.637 520.853 861.805C515.102 859.608 506.607 854.9 502.71 850.401C497.349 844.213 475.22 798.587 478.121 793.059C480.363 792.522 481.069 792.559 482.673 791.053C486.98 795.221 496.896 802.727 502.119 806.112C502.245 795.091 501.645 780.419 502.641 769.807C506.663 764.975 510.578 761.105 515.035 756.746C515.877 738.099 515.599 717.903 515.305 699.18C512.617 695.96 504.193 687.047 510.289 683.257C512.131 683.543 511.279 683.198 512.817 684.572C513.634 686.321 513.279 687.032 512.943 689.096L512.816 689.841C514.95 692.273 517.356 695.486 519.398 698.074L520.578 697.541C521.077 691.462 521.13 688.058 523.656 682.487C524.921 688.471 525.244 692.306 525.498 698.442L526.531 698.542C529.035 695.322 531.381 692.485 533.301 688.865Z"/><path fill="#2DA6D9" d="M482.673 791.053C486.98 795.221 496.896 802.727 502.119 806.112C500.804 811.469 498.797 816.563 497.621 821.442C498.79 823.478 499.457 824.771 500.968 826.601C503.97 826.153 507.929 825.084 510.352 826.821C512.363 831.496 502.191 842.996 508.96 845.732C510.577 846.386 514.584 845.849 516.412 844.864C517.846 842.92 517.522 841.759 517.098 839.095C516.12 832.95 514.501 828.305 514.358 821.938C515.572 822.382 519.43 825.869 520.845 826.991C521.21 838.168 521.044 850.637 520.853 861.805C515.102 859.608 506.607 854.9 502.71 850.401C497.349 844.213 475.22 798.587 478.121 793.059C480.363 792.522 481.069 792.559 482.673 791.053Z"/><path fill="#2DA6D9" d="M564.711 791.469C566.222 791.709 566.834 791.862 568.396 791.754C565.252 808.039 550.545 846.17 536.82 855.338C533.24 857.73 529.191 859.777 525.213 861.415C524.799 849.82 524.871 837.8 524.795 826.169C527.8 823.919 529.257 822.363 531.963 820.091C532.142 824.172 531.059 829.453 529.865 833.694C527.96 839.508 527.158 848.261 536.356 844.983C542.082 842.942 537.575 835.462 535.669 832.54L535.566 824.547C539.635 825.568 542.752 826.739 546.344 824.754C549.568 820.941 544.586 812.277 544.677 806.27C550.8 801.651 558.438 795.466 564.711 791.469Z"/><path fill="#1D729E" d="M515.867 760.535C514.619 764.978 511.79 773.197 512.827 777.602C514.177 778.893 513.341 778.429 515.696 778.49C517.24 778.372 519.19 778.279 520.668 778.007C524.006 787.499 514.733 788.457 511.933 796.482C510.421 800.816 511.025 808.202 511.163 812.962C508.87 810.5 508.259 809.893 505.529 807.859C505.505 796.143 504.343 784.466 505.004 772.663C508.505 767.437 511.346 764.863 515.867 760.535Z"/><path fill="#1D729E" d="M535.28 773.446C532.387 770.676 529.508 766.574 531.191 762.305C532.243 762.8 538.886 770.041 540.921 771.842C541.015 782.85 541.489 797.323 540.478 808.011C539.101 809.996 539.542 810.038 537.689 810.764C534.927 809.001 535.491 798.701 535.433 795.192C531.309 791.561 525.232 786.981 524.931 781.119C524.891 780.336 524.898 779.551 524.955 778.769C527.254 778.742 529.173 778.516 531.308 779.286C532.591 779.091 533.367 778.695 534.551 778.202C535.436 776.172 535.583 775.517 535.28 773.446Z"/><path fill="#3B7288" d="M519.398 698.074L520.578 697.541C521.004 712.573 520.391 728.71 520.586 743.852C520.648 748.592 521.265 775.326 520.668 778.007C519.19 778.279 517.24 778.372 515.696 778.49C522.12 764.881 518.384 716.081 519.398 698.074Z"/><path fill="#3B7288" d="M525.498 698.442L526.531 698.542C526.955 716.054 526.441 733.705 526.698 751.215C526.779 756.721 526.571 769.328 527.67 774.06C529.91 776.328 530.262 776.315 531.308 779.286C529.173 778.516 527.254 778.742 524.955 778.769C525.833 773.03 525.327 757.628 525.323 751.296L525.498 698.442Z"/><path fill="#75B6C8" d="M535.28 773.446C535.583 775.517 535.436 776.172 534.551 778.202C532.823 777.436 532.393 777.189 531.973 775.465C533.241 773.748 532.867 774.281 535.28 773.446Z"/><path fill="#2DA6D9" d="M561.185 659.744C561.926 658.054 562.412 656.327 563.926 655.387C566.981 657.54 565.936 675.732 565.967 680.25C566.072 695.104 565.53 710.007 565.96 724.866C570.928 731.933 576.46 738.587 582.5 744.763C583.478 743.126 584.099 742.25 584.697 740.458C586.696 729.729 588.681 717.84 592.656 707.726C600.695 718.07 608.785 728.19 617.088 738.316C620.427 742.387 623.471 747.338 622.363 752.763C615.109 788.787 590.553 818.506 562.002 839.571C558.311 842.297 554.495 844.85 550.568 847.222C565.405 816.991 573.663 800.24 579.398 766.295C576.41 763.083 572.895 759.861 569.741 756.743C567.263 754.294 563.702 750.035 561.082 748.092L560.574 748.082C558.556 746.248 559.196 727.464 559.213 723.426C559.42 707.282 559.455 691.135 559.317 674.99C559.271 672.135 559.673 665.165 557.918 663.34C559.7 662.73 560.613 661.485 561.185 659.744Z"/><path fill="#66A6B5" d="M561.185 659.744C561.926 658.054 562.412 656.327 563.926 655.387C566.981 657.54 565.936 675.732 565.967 680.25C566.072 695.104 565.53 710.007 565.96 724.866C570.928 731.933 576.46 738.587 582.5 744.763C583.478 743.126 584.099 742.25 584.697 740.458C587.757 740.13 590.814 739.782 593.87 739.412C605.367 727.674 612.381 738.126 608.267 743.755C601.274 747.538 590.351 741.9 586.444 746.527C587.073 749.655 593.565 754.731 596.303 756.587L597.672 757.504C600.808 757.376 608.267 756.759 610.109 759.477C614.891 766.535 600.999 774.143 596.982 763.233C595.956 760.447 585.655 753.455 582.368 750.376L581.328 762.67C587.482 769.072 590.851 776.307 589.862 785.149C589.087 792.078 594.919 799.923 592.067 804.18C589.556 805.836 584.053 804.478 583.571 802.672C580.394 790.78 591.613 777.269 579.398 766.295C576.41 763.083 572.895 759.861 569.741 756.743C567.263 754.294 563.702 750.035 561.082 748.092L560.574 748.082C558.556 746.248 559.196 727.464 559.213 723.426C559.42 707.282 559.455 691.135 559.317 674.99C559.271 672.135 559.673 665.165 557.918 663.34C559.7 662.73 560.613 661.485 561.185 659.744Z"/><path fill="#1D729E" d="M565.551 731.321C571.901 738.387 576.429 742.51 582.368 750.376L581.328 762.67C576.683 759.092 569.38 752.402 565.923 748.008C565.397 742.864 565.558 736.574 565.551 731.321Z"/><path fill="#3B7288" d="M561.185 659.744C561.992 667.881 561.466 685.592 561.449 694.447L561.765 745.513C561.762 746.98 561.792 747.017 561.082 748.092L560.574 748.082C558.556 746.248 559.196 727.464 559.213 723.426C559.42 707.282 559.455 691.135 559.317 674.99C559.271 672.135 559.673 665.165 557.918 663.34C559.7 662.73 560.613 661.485 561.185 659.744Z"/><path fill="#2DA6D9" d="M480.178 725.819C480.552 716.245 479.415 659.358 481.04 655.292L482.035 654.432C482.844 654.59 484.195 654.953 484.312 655.945C485.048 662.21 484.532 671.046 484.016 677.487C482.31 698.795 487.028 728.626 484.033 749.258C479.97 754.266 471.629 761.674 466.763 766.908C468.931 775.006 470.291 783.544 472.51 791.791C477.865 811.084 485.365 829.716 494.87 847.339C481.83 841.485 470.377 830.489 460.109 820.667C439.937 801.374 424.672 774.393 421.964 746.344C427.814 737.139 433.006 732.636 439.879 724.655C444.923 718.797 448.677 713.061 454.22 707.165C457.166 715.13 460.283 731.424 461.6 739.971L462.566 744.335L463.167 745.23C468.726 740.048 475.595 731.817 480.178 725.819Z"/><path fill="#66A6B5" d="M480.178 725.819C480.552 716.245 479.415 659.358 481.04 655.292L482.035 654.432C482.844 654.59 484.195 654.953 484.312 655.945C485.048 662.21 484.532 671.046 484.016 677.487C482.31 698.795 487.028 728.626 484.033 749.258C479.97 754.266 471.629 761.674 466.763 766.908C461.284 772.149 460.406 782.426 461.403 789.549C461.99 793.748 465.631 800.8 463.401 804.361C459.536 806.424 454.874 803.004 452.065 800.453C459.638 785.946 452.003 773.672 465.762 762.493C464.853 757.897 464.299 754.52 463.817 749.86C459.278 754.797 455.722 757.746 449.972 761.113C447.733 762.424 448.024 765.106 447.11 767.63C442.55 771.773 436.431 767.622 436.128 762.233C435.764 755.787 447.889 757.359 452.672 754.398C458.278 750.928 458.877 750.161 463.167 745.23C468.726 740.048 475.595 731.817 480.178 725.819Z"/><path fill="#1D729E" d="M480.5 730.556L480.427 746.996C477.369 752.334 470.704 758.821 465.762 762.493C464.853 757.897 464.299 754.52 463.817 749.86C467.877 744.216 475.592 736.831 480.5 730.556Z"/><path fill="#66A6B5" d="M462.566 744.335C460.607 743.976 454.937 743.358 453.003 743.498C449.65 743.74 443.485 748.081 440.173 746.637C437.411 743.439 435.727 735.799 441.335 734.46C446.202 733.298 450.829 737.36 454.641 739.973L461.6 739.971L462.566 744.335Z"/><path fill="#66A6B5" d="M487.388 762.202C487.606 755.189 487.044 746.658 486.968 739.458L486.84 694.733C486.816 689.442 485.776 666.13 489.123 663.305L489.764 663.656C490.801 665.655 490.673 665.983 490.68 668.326L493.889 669.54C495.401 671.165 496.559 672.358 497.878 674.165C498.878 675.332 499.816 676.324 500.6 677.65L503.901 680.268C503.94 689.9 503.871 699.767 504.03 709.378C509.091 717.323 509.373 718.027 509.663 727.338C512.186 729.861 514.705 732.739 510.713 735.411C507.861 737.319 504.96 736.669 503.432 733.619C503.371 730.417 504.534 729.346 506.496 726.666C506.474 722.797 506.589 719.493 505.149 715.825C503.709 714.656 502.502 713.63 500.949 712.621C499.849 713.819 499.192 714.59 497.898 715.614C497.92 720.079 498.165 726.95 497.889 731.208L497.889 732.003C497.929 739.189 502.974 746.052 499.264 750.025C496.752 751.107 495.715 750.744 493.131 749.7C492.399 749.408 491.671 749.104 490.949 748.788C490.86 754.223 490.686 759.657 490.429 765.087C480.235 774.792 481.35 775.352 486.332 786.85C485.278 787.968 483.408 789.801 482.673 791.053C481.069 792.559 480.363 792.522 478.121 793.059C477.781 792.175 476.571 789.049 476.422 788.246C474.781 779.395 483.012 768.995 487.388 762.202Z"/><path fill="#66A6B5" d="M500.6 677.65L503.901 680.268C503.94 689.9 503.871 699.767 504.03 709.378C509.091 717.323 509.373 718.027 509.663 727.338C512.186 729.861 514.705 732.739 510.713 735.411C507.861 737.319 504.96 736.669 503.432 733.619C503.371 730.417 504.534 729.346 506.496 726.666C506.474 722.797 506.589 719.493 505.149 715.825C503.709 714.656 502.502 713.63 500.949 712.621C499.301 711.26 499.969 681.724 500.6 677.65Z"/><path fill="#3B7288" d="M491.012 744.127C490.822 719.759 489.588 692.43 490.68 668.326L493.889 669.54L493.96 709.691C494.03 719.085 494.41 729.601 493.353 738.886C493.144 740.721 491.977 742.542 491.012 744.127Z"/><path fill="#3B7288" d="M497.878 674.165C498.878 675.332 499.816 676.324 500.6 677.65C499.969 681.724 499.301 711.26 500.949 712.621C499.849 713.819 499.192 714.59 497.898 715.614C497.92 720.079 498.165 726.95 497.889 731.208C497.43 727.315 497.499 717.697 497.398 713.271C497.133 701.606 496.401 685.663 497.878 674.165Z"/><path fill="#66A6B5" d="M557.918 663.34C559.673 665.165 559.271 672.135 559.317 674.99C559.455 691.135 559.42 707.282 559.213 723.426C559.196 727.464 558.556 746.248 560.574 748.082C558.512 750.253 559.416 759.798 559.496 763.284C564.928 769.684 570.446 775.849 569.875 784.837C569.705 787.2 569.207 789.528 568.396 791.754C566.834 791.862 566.222 791.709 564.711 791.469C558.364 785.442 561.635 783.542 565.081 776.623C561.595 770.513 560.913 769.538 555.559 765.061L555.435 749.112C552.216 750.169 547.935 752.113 545.27 749.128C544.254 745.049 547.473 741.319 547.909 737.247C548.638 730.458 548.291 723.549 548.181 716.709C548.11 713.885 548.354 712.879 546.668 710.826C545.347 711.691 541.657 716.001 540.176 717.574C539.917 720.546 539.938 724.172 539.882 727.216C543.222 730.293 545.474 735.891 538.735 737.256C536.339 737.741 534.54 735.582 532.877 733.957C533.985 730.407 534.503 729.626 536.865 726.703C537.037 716.966 537.725 716.095 542.873 707.983L542.45 681.448L547.293 677.629L548.316 675.988C548.606 674.753 548.981 674.14 549.537 672.999C551.283 671.735 550.402 671.884 552.153 672.034C553.292 673.083 553.153 673.122 553.502 674.675L554.521 675.279C554.225 671.512 553.975 665.146 557.918 663.34Z"/><path fill="#66A6B5" d="M542.45 681.448L547.293 677.629C546.798 683.678 546.558 689.745 546.572 695.814C546.568 698.038 546.923 709.771 546.668 710.826C545.347 711.691 541.657 716.001 540.176 717.574C539.917 720.546 539.938 724.172 539.882 727.216C543.222 730.293 545.474 735.891 538.735 737.256C536.339 737.741 534.54 735.582 532.877 733.957C533.985 730.407 534.503 729.626 536.865 726.703C537.037 716.966 537.725 716.095 542.873 707.983L542.45 681.448Z"/><path fill="#3B7288" d="M554.521 675.279C555.878 680.254 555.405 732.668 554.475 738.837L554.07 739.075C552.404 734.776 551.948 720.278 552.653 715.788C554.121 706.443 550.682 682.082 553.502 674.675L554.521 675.279Z"/><path fill="#3B7288" d="M548.316 675.988C548.688 687.122 549.005 705.843 548.181 716.709C548.11 713.885 548.354 712.879 546.668 710.826C546.923 709.771 546.568 698.038 546.572 695.814C546.558 689.745 546.798 683.678 547.293 677.629L548.316 675.988Z"/><path fill="#9A988A" d="M502.022 626.11C506.484 615.312 509.749 618.897 519.301 621.583C521.186 622.113 528.73 621.681 530.813 620.646C535.544 618.295 547.435 620.244 543.348 627.625C539.838 633.963 534.447 633.486 537.739 642.794C536.616 644.317 534.894 646.502 533.945 648.051C533.696 649.595 533.797 649.649 532.981 650.941C529.362 653.191 513.451 655.012 510.584 650.831C510.996 649.256 511.209 648.502 511.13 646.831C508.002 643.184 509.462 641.391 511.406 637.57C507.256 633.409 504.376 631.563 502.022 626.11Z"/><path fill="#3B7288" d="M511.13 646.831C516.296 649.192 529.096 650.792 533.945 648.051C533.696 649.595 533.797 649.649 532.981 650.941C529.362 653.191 513.451 655.012 510.584 650.831C510.996 649.256 511.209 648.502 511.13 646.831Z"/><path fill="#E3904C" d="M509.653 622.928C513.941 622.801 518.98 624.663 523.656 624.987C527.908 625.281 536.437 621.249 539.224 623.632C539.989 628.807 532.633 631.748 533.02 638.877C533.193 640.804 533.499 641.706 532.494 643.33C528.302 646.943 518.68 647.3 514.322 643.502C512.779 642.158 513.368 637.648 513.485 635.582C511.124 631.749 508.262 630.408 507.203 626.268C507.774 624.135 507.741 624.699 509.653 622.928Z"/><path fill="#2DA6D9" d="M467.842 646.623C473.954 647.591 475.334 656.548 475.227 661.388C474.874 677.291 477.858 726.915 467.784 738.758L466.97 738.694C464.49 733.547 456.878 704.812 458.68 700.682C467.063 681.462 465.022 666.547 467.842 646.623Z"/><path fill="#2DA6D9" d="M576.763 646.267C577.1 646.613 577.438 646.959 577.776 647.305C578.975 656.047 578.691 669.212 580.197 677.793C581.715 686.447 585.136 696.147 588.685 703.177C586.44 714.653 583.171 725.841 580.796 737.376L579.97 737.552C568.825 731.937 569.425 673.398 570.322 660.263C570.826 652.888 571.236 650.912 576.763 646.267Z"/><path fill="#2DA6D9" d="M526.84 656.231C531.818 655.883 548.247 655.259 550.107 661.087C549.834 665.183 545.733 669.096 542.991 672.228C537.766 678.196 529.656 678.23 522.125 678.339C506.793 678.275 503.131 672.295 495.554 660.394C505.697 657.769 516.385 656.681 526.84 656.231Z"/><path fill="#66A6B5" d="M502.639 660.989C507.296 660.909 509.167 665.33 514.554 667.378C520.569 669.806 527.278 670.269 533.014 666.811C535.048 665.585 540.198 661.326 542.367 662.485C542.383 664.145 542.308 663.693 541.092 665.359C533.977 675.095 525.826 674.969 514.68 673.275C509.287 672.455 500.873 667.497 502.639 660.989Z"/><path fill="#2DA6D9" d="M486.876 651.415C480.384 644.212 449.781 609.933 455.392 595.188C456.272 592.874 461.394 595.754 462.855 597.844C465.835 602.109 468.378 609.204 472.084 612.981L473.709 614.586C474.71 619.102 475.258 620.008 477.164 624.242C479.024 623.903 480.106 623.45 481.726 624.333C483.211 626.58 482.657 628.27 482.365 631.128C482.273 633.772 486.367 646.22 486.876 651.415Z"/><path fill="#66A6B5" d="M477.164 624.242C479.024 623.903 480.106 623.45 481.726 624.333C483.211 626.58 482.657 628.27 482.365 631.128C478.483 628.788 478.434 628.638 477.164 624.242Z"/><path fill="#66A6B5" d="M472.084 612.981C473.832 610.994 473.341 610.893 475.408 610.445C479.637 611.451 481.267 615.933 481.14 619.905L480.588 620.734C477.635 620.222 476.763 616.695 473.709 614.586L472.084 612.981Z"/><path fill="#E3904C" d="M784.908 97.3778C801.907 111.729 809.49 135.275 817.133 155.246C828.632 185.296 838.823 218.4 832.511 250.722C831.631 255.227 830.838 260.389 830.276 264.971C828.962 275.671 832.844 286.61 829.913 297.234C817.17 336.343 785.541 362.998 758.973 392.417C753.337 398.658 760.469 417.723 758.118 421.766C750.721 425.282 722.552 421.362 713.135 422.83C694.256 425.772 673.306 430.211 655.186 435.747C634.732 441.995 593.795 458.192 582.923 476.978L578.566 474.562L573.532 471.135L570.395 469.367C567.007 467.766 563.74 465.545 560.575 463.511L555.378 460.35C563.112 455.327 571.859 444.678 573.536 435.539C576.209 420.972 572.117 403.465 571.962 388.851C571.851 378.364 571.82 366.924 572.151 356.529C572.444 347.367 573.7 337.187 574.255 328.019C574.653 321.426 573.787 308.048 575.525 302.382C576.952 301.622 576.209 301.714 577.838 302.201C585.826 309.197 588.023 331.155 589.161 341.074C590.159 349.78 586.615 372.793 600.186 373.025C609.469 373.183 620.277 351.224 627.21 344.955C629.76 357.93 626.428 368.323 619.092 379.099C610.454 391.786 595.51 403.517 596.111 420.202C596.274 424.723 602.911 427.166 606.812 426.215C619.419 423.14 631.022 409.518 637.403 399.057C643.161 389.602 646.812 379.017 648.11 368.024C649 360.22 646.294 323.672 651.532 321.782C658.472 324.561 659.457 346.7 661.439 352.53C662.114 354.562 663.537 356.26 665.419 357.28C671.61 356.391 671.871 337.753 676.313 333.699C680.649 333.269 680.152 342.821 680.168 345.735C680.253 360.996 673.13 374.86 664.979 387.424C662.647 391.018 654.634 399.683 659.593 404.61C661.208 406.215 665.176 405.696 667.106 405.23C687.269 399.654 705.568 371.574 716.874 355.175C719.067 351.255 722.246 345.444 723.068 341.041C726.315 323.644 725.342 304.607 723.826 287.019C723.478 282.981 718.639 268.527 721.674 266.276C728.689 268.076 734.348 284.748 736.82 291.052C739.608 298.166 739.655 314.374 744.585 320.022C750.452 320.858 755.449 295.348 756.7 290.619C758.33 284.459 757.577 257.38 762.046 254.667C765.605 256.139 767.223 266.402 767.922 270.036C771.451 288.389 772.416 306.9 765.185 324.548C762.647 330.726 759.244 336.512 755.077 341.731C748.641 349.782 723.499 373.099 723.595 381.422C725.466 384.375 729.542 382.222 731.643 380.603C751.332 365.432 793.268 326.554 797.575 301.349C806.643 248.285 735.639 213.798 740.403 160.716C740.456 160.018 740.982 159.102 741.334 158.518L742.194 158.406C746.096 161.864 751.258 176.036 755.165 181.87C763.832 194.813 781.289 220.22 798.507 221.32C809.401 222.017 808.298 200.385 807.338 193.374C804.154 170.117 796.94 147.488 791.156 124.773C788.797 115.282 784.808 107.05 784.908 97.3778Z"/><path fill="#A0693A" d="M784.908 97.3778C801.907 111.729 809.49 135.275 817.133 155.246C828.632 185.296 838.823 218.4 832.511 250.722C831.631 255.227 830.838 260.389 830.276 264.971C828.962 275.671 832.844 286.61 829.913 297.234C817.17 336.343 785.541 362.998 758.973 392.417C753.337 398.658 760.469 417.723 758.118 421.766C750.721 425.282 722.552 421.362 713.135 422.83C694.256 425.772 673.306 430.211 655.186 435.747C634.732 441.995 593.795 458.192 582.923 476.978L578.566 474.562C598.828 445.993 676.276 422.671 710.647 419.765C716.254 419.331 721.88 419.176 727.503 419.299C734.655 419.485 747.216 421.395 753.328 418.793C754.372 417.347 754.043 417.798 754.021 415.618L753.979 414.825C753.452 411.701 753.355 410.099 751.522 407.563L752.056 406.527C749.274 404.316 748.115 403.395 746.189 400.392L745.546 401.517C743.616 397.729 744.388 392.839 746.844 389.578C757.308 375.684 771.844 362.889 783.984 350.486C806.763 327.552 822.213 301.483 812.964 268.321C811.531 263.182 803.855 243.669 807.53 240.507C811.138 241.02 815.57 247.804 817.628 250.637C824.802 224.95 821.711 209.111 816.297 184.064L817.136 183.982C821.394 201.062 823.797 213.626 822.343 231.73C821.856 237.798 819.93 247.604 819.823 253.027C821.517 256.811 823.323 259.347 825.623 262.811C839.77 219.615 817.869 161.642 799.776 121.997C797.406 116.804 792.208 108.718 788.307 104.575L788.471 105.388C790.151 113.455 794.06 122.762 796.45 131.16C799.289 141.155 802.265 151.274 804.513 161.442C808.56 179.747 817.868 204.326 808.25 222.058C802.947 231.835 790.245 225.781 783.787 220.62C766.587 206.874 753.507 187.702 743.733 168.168C745.742 179.503 747.69 186.739 752.948 197.108C769.008 228.779 801.423 252.967 802.498 290.948C802.882 304.544 799.162 315.687 791.266 326.875C778.176 344.215 746.124 380.002 727.167 389.428C723.531 388.97 722.902 387.523 719.537 389.459C716.003 370.344 739.907 354.063 750.727 340.693C765.231 322.77 771.178 295.683 767.096 273.024C766.409 269.682 765.967 263.577 763.501 261.38L762.925 261.49C762.163 263.86 761.888 272.598 761.766 275.463C761.13 290.469 759.185 303.701 753.521 317.69C749.171 328.435 741.787 329.914 739.046 317.615C735.664 302.443 736.846 293.908 727.432 280.42C728 290.694 728.844 301.067 729.624 311.346C732.06 343.48 717.437 367.273 696.475 390.458C689.416 398.266 669.459 417.112 655.713 409.114C654.303 408.294 653.785 405.045 653.933 403.591C658.154 381.679 681.77 367.768 676.669 341.32C675.648 344.324 674.722 347.403 673.871 350.29C672.617 354.545 670.961 361.826 666.795 363.94C663.039 365.846 659.588 358.189 658.965 355.579C656.367 345.523 655.365 335.109 652.348 325.11C651.924 332.204 651.453 339.715 651.618 346.695C652.025 363.948 653.467 381.249 644.38 396.762C638.736 406.398 631.373 415.476 623.24 423.186C614.069 431.881 591.824 436.947 593.534 417.488C594.452 406.851 599.018 396.859 606.459 389.203C618.837 376.255 622.335 371.985 626.23 353.792C620.823 360.491 603.188 386.306 591.931 375.275C583.257 366.774 586.662 344.198 585.071 333.087C583.784 323.803 581.399 316.391 577.588 308.416C576.774 332.152 575.6 356.136 575.334 379.887C575.127 398.364 581.404 419.274 577.215 437.751C575.709 444.392 565.397 458.276 560.575 463.511L555.378 460.35C563.112 455.327 571.859 444.678 573.536 435.539C576.209 420.972 572.117 403.465 571.962 388.851C571.851 378.364 571.82 366.924 572.151 356.529C572.444 347.367 573.7 337.187 574.255 328.019C574.653 321.426 573.787 308.048 575.525 302.382C576.952 301.622 576.209 301.714 577.838 302.201C585.826 309.197 588.023 331.155 589.161 341.074C590.159 349.78 586.615 372.793 600.186 373.025C609.469 373.183 620.277 351.224 627.21 344.955C629.76 357.93 626.428 368.323 619.092 379.099C610.454 391.786 595.51 403.517 596.111 420.202C596.274 424.723 602.911 427.166 606.812 426.215C619.419 423.14 631.022 409.518 637.403 399.057C643.161 389.602 646.812 379.017 648.11 368.024C649 360.22 646.294 323.672 651.532 321.782C658.472 324.561 659.457 346.7 661.439 352.53C662.114 354.562 663.537 356.26 665.419 357.28C671.61 356.391 671.871 337.753 676.313 333.699C680.649 333.269 680.152 342.821 680.168 345.735C680.253 360.996 673.13 374.86 664.979 387.424C662.647 391.018 654.634 399.683 659.593 404.61C661.208 406.215 665.176 405.696 667.106 405.23C687.269 399.654 705.568 371.574 716.874 355.175C719.067 351.255 722.246 345.444 723.068 341.041C726.315 323.644 725.342 304.607 723.826 287.019C723.478 282.981 718.639 268.527 721.674 266.276C728.689 268.076 734.348 284.748 736.82 291.052C739.608 298.166 739.655 314.374 744.585 320.022C750.452 320.858 755.449 295.348 756.7 290.619C758.33 284.459 757.577 257.38 762.046 254.667C765.605 256.139 767.223 266.402 767.922 270.036C771.451 288.389 772.416 306.9 765.185 324.548C762.647 330.726 759.244 336.512 755.077 341.731C748.641 349.782 723.499 373.099 723.595 381.422C725.466 384.375 729.542 382.222 731.643 380.603C751.332 365.432 793.268 326.554 797.575 301.349C806.643 248.285 735.639 213.798 740.403 160.716C740.456 160.018 740.982 159.102 741.334 158.518L742.194 158.406C746.096 161.864 751.258 176.036 755.165 181.87C763.832 194.813 781.289 220.22 798.507 221.32C809.401 222.017 808.298 200.385 807.338 193.374C804.154 170.117 796.94 147.488 791.156 124.773C788.797 115.282 784.808 107.05 784.908 97.3778Z"/><path fill="#E3904C" d="M809.007 245.287C817.371 254.64 829.068 274.519 827.625 287.512C824.682 314.019 800.242 341.18 782.689 360.069C766.788 377.18 755.072 381.407 752.056 406.527C749.274 404.316 748.115 403.395 746.189 400.392C745.325 395.475 746.137 391.674 749.356 387.88C777.884 354.251 824.313 325.627 817.44 274.884C816.233 265.977 811.625 254.436 809.007 245.287Z"/><path fill="#E3904C" d="M573.532 471.135C578.409 466.388 584.154 460.904 589.783 456.798C623.828 431.971 672.019 416.774 713.623 413.066C724.731 412.076 742.97 414.122 754.021 415.618C754.043 417.798 754.372 417.347 753.328 418.793C747.216 421.395 734.655 419.485 727.503 419.299C721.88 419.176 716.254 419.331 710.647 419.765C676.276 422.671 598.828 445.993 578.566 474.562L573.532 471.135Z"/><path fill="#AC6B34" d="M570.395 469.367C579.821 459.233 594.827 447.489 607.197 441.203C649.169 419.875 707.195 400.907 753.979 414.825L754.021 415.618C742.97 414.122 724.731 412.076 713.623 413.066C672.019 416.774 623.828 431.971 589.783 456.798C584.154 460.904 578.409 466.388 573.532 471.135L570.395 469.367Z"/><path fill="#AC6B34" d="M727.167 389.428C712.356 395.893 707.938 389.063 715.248 375.291C722.969 360.743 735.018 350.479 733.599 332.506C733.241 327.969 732.621 312.973 733.38 308.975L733.364 309.996L733.731 310.125C734.586 318.428 734.998 335.014 733.855 342.99C741.202 340.439 744.502 338.906 748.957 331.64C749.859 330.169 749.458 330.485 750.688 329.072L751.024 329.479C747.469 338.462 742.706 340.898 734.126 343.841C730.309 354.45 723.297 363.62 717.619 373.158C715.326 377.011 712.063 384.815 713.323 389.178C714.98 390.989 717.817 391.215 719.537 389.459C722.902 387.523 723.531 388.97 727.167 389.428Z"/><path fill="#AC6B34" d="M816.297 184.064C813.867 174.781 811.271 165.542 808.509 156.352C807.393 152.566 803.923 142.063 803.765 138.975C805.594 140.826 815.855 178.805 817.136 183.982L816.297 184.064Z"/><path fill="#AC6B34" d="M746.189 400.392C748.115 403.395 749.274 404.316 752.056 406.527L751.522 407.563C749.316 405.845 747.021 403.901 745.546 401.517L746.189 400.392Z"/><path fill="#AC6B34" d="M764.805 210.616C766.779 211.933 772.571 219.59 774.584 221.826C786.312 234.776 797.643 247.5 805.623 263.212C813.433 278.59 811.804 289.055 806.625 304.542C805.752 303.536 807.275 299.912 807.683 298.678C819.368 263.354 780.684 236.251 764.805 210.616Z"/><path fill="#AC6B34" d="M600.922 387.961L601.121 388.192C601.248 389.673 598.612 392.857 597.665 394.323C595.482 397.695 593.651 401.283 592.201 405.029C587.076 418.297 589.008 432.572 582.958 445.508C579.773 452.319 573.702 461.651 567.316 465.758L566.833 464.832C569.109 458.967 580.168 449.155 581.932 443.768C589.339 421.139 585.663 408.367 600.922 387.961Z"/><path fill="#AC6B34" d="M656.438 374.762C660.863 383.201 641.368 406.067 646.908 413.605C648.329 414.086 649.197 414.202 650.182 415.425C636.802 416.015 652.154 392.715 653.683 387.154C654.843 382.93 655.729 379.09 656.438 374.762Z"/><path fill="#E3904C" d="M467.123 476.619C443.157 446.673 372.841 429.034 335.539 422.683C329.461 421.648 296.873 423.365 294.119 421.613C292.303 416.798 298.012 400.181 294.505 394.232C289.893 386.409 279.843 377.022 273.348 370.619C255.133 352.662 238.313 333.35 227.017 310.22C223.979 303.998 222.445 299.713 220.931 293.023C219.449 286.472 223.059 275.841 222.542 271.675C221.504 263.304 218.637 253.687 218.544 244.705C218.417 232.555 217.863 218.744 220.03 206.753C225.989 174.671 236.652 141.537 253.36 113.42C255.342 110.085 261.911 98.7899 266.125 98.6663C267.913 103.918 261.426 121.068 259.669 126.766C256.871 136.075 254.199 145.421 251.655 154.802C248.442 166.46 245.423 178.515 243.838 190.512C242.373 201.599 239.739 218.686 254.068 221.973L254.781 222.13C271.273 216.544 288.756 193.477 297.717 178.781C302.541 170.87 303.969 165.31 310.25 156.988C313.076 200.608 278.542 226.32 260.779 261.605C254.853 273.378 249.978 293.941 254.319 306.684C256.445 312.925 260.933 320.284 264.787 325.588C274.054 338.34 308.853 376.778 322.436 383.262C324.02 384.018 326.147 384.835 327.856 383.992C328.845 383.504 329.715 382.458 329.928 381.367C331.05 375.609 307.744 353.166 302.687 347.345C299.167 343.295 295.674 338.77 292.774 334.255C281.543 316.768 280.312 288.416 284.68 268.611C285.713 263.927 286.987 256.746 291.302 253.995L292.29 254.239C295.605 258.997 292.09 277.347 293.952 285.133C295.891 293.238 299.538 314.821 306.378 319.723C310.917 320.394 312.342 309.995 312.367 306.643C312.419 299.519 323.448 265.202 331.443 267.137C332.669 269.598 330.507 274.564 329.856 277.531C326.621 294.051 323.242 319.148 327.39 335.741C333.141 358.749 355.312 387.05 373.725 402.1C377.089 404.85 388.821 409.649 392.954 407.099C397.824 400.575 383.445 384.222 380.377 377.349C376.956 369.686 373.979 365.776 373.451 356.906L373.413 356.185C372.705 352.9 371.675 335.167 375.692 334.515C381.68 336.937 380.435 355.327 386.975 357.523C396.289 354.521 391.869 318.343 401.733 320.973C403.815 323.442 403.051 328.422 402.925 331.78C403.081 339.387 403.344 346.998 403.502 354.642C403.776 361.744 402.255 370.089 403.732 377.05C406.855 391.76 416.126 406.501 426.525 417.278C431.605 422.544 443.668 431.413 450.892 425.156C453.051 423.285 453.072 420.013 453.846 417.781C452.97 410.913 452.114 409.829 449 403.51C437.122 386.087 431.212 384.726 423.761 362.604C422.655 358.681 420.836 350.771 422.275 346.946L423.226 346.458C427.207 347.969 433.136 359.479 436.212 363.667C438.25 366.413 440.537 368.965 443.043 371.291C452.087 373.76 457.044 372.99 459.535 362.84C461.51 354.791 460.152 346.02 460.637 338.014C461.043 331.32 466.833 304.225 473.346 301.949C474.119 302.198 475.534 302.852 475.565 303.836C476.5 333.593 477.884 364.238 477.322 394.016C476.678 428.083 465.378 436.425 492.776 460.815L489.592 462.92C485.847 465.138 480.2 468.63 476.652 471.324L470.668 474.766C469.53 475.468 468.395 476.299 467.123 476.619Z"/><path fill="#A0693A" d="M467.123 476.619C443.157 446.673 372.841 429.034 335.539 422.683C329.461 421.648 296.873 423.365 294.119 421.613C292.303 416.798 298.012 400.181 294.505 394.232C289.893 386.409 279.843 377.022 273.348 370.619C255.133 352.662 238.313 333.35 227.017 310.22C223.979 303.998 222.445 299.713 220.931 293.023C219.449 286.472 223.059 275.841 222.542 271.675C221.504 263.304 218.637 253.687 218.544 244.705C218.417 232.555 217.863 218.744 220.03 206.753C225.989 174.671 236.652 141.537 253.36 113.42C255.342 110.085 261.911 98.7899 266.125 98.6663C267.913 103.918 261.426 121.068 259.669 126.766C256.871 136.075 254.199 145.421 251.655 154.802C248.442 166.46 245.423 178.515 243.838 190.512C242.373 201.599 239.739 218.686 254.068 221.973L254.781 222.13C271.273 216.544 288.756 193.477 297.717 178.781C302.541 170.87 303.969 165.31 310.25 156.988C313.076 200.608 278.542 226.32 260.779 261.605C254.853 273.378 249.978 293.941 254.319 306.684C256.445 312.925 260.933 320.284 264.787 325.588C274.054 338.34 308.853 376.778 322.436 383.262C324.02 384.018 326.147 384.835 327.856 383.992C328.845 383.504 329.715 382.458 329.928 381.367C331.05 375.609 307.744 353.166 302.687 347.345C299.167 343.295 295.674 338.77 292.774 334.255C281.543 316.768 280.312 288.416 284.68 268.611C285.713 263.927 286.987 256.746 291.302 253.995L292.29 254.239C295.605 258.997 292.09 277.347 293.952 285.133C295.891 293.238 299.538 314.821 306.378 319.723C310.917 320.394 312.342 309.995 312.367 306.643C312.419 299.519 323.448 265.202 331.443 267.137C332.669 269.598 330.507 274.564 329.856 277.531C326.621 294.051 323.242 319.148 327.39 335.741C333.141 358.749 355.312 387.05 373.725 402.1C377.089 404.85 388.821 409.649 392.954 407.099C397.824 400.575 383.445 384.222 380.377 377.349C376.956 369.686 373.979 365.776 373.451 356.906L373.413 356.185C372.705 352.9 371.675 335.167 375.692 334.515C381.68 336.937 380.435 355.327 386.975 357.523C396.289 354.521 391.869 318.343 401.733 320.973C403.815 323.442 403.051 328.422 402.925 331.78C402.733 333.991 402.641 338.976 402.17 340.751C401.433 339.564 401.503 338.269 401.389 336.835C401.174 333.845 400.841 330.314 400.784 327.372C397.602 335.123 396.613 342.514 394.94 350.67C394.048 355.022 390.876 365.959 385.114 364.16C380.619 360.07 377.927 345.144 375.27 338.4C375.039 341.728 374.547 346.746 374.632 349.938C375.355 355.347 376.168 362.726 378.851 368.116C384.909 380.267 397.382 392.881 397.884 406.902C398.085 412.509 388.929 412.221 385.282 411.305C365.886 406.429 351.474 387.103 340.751 371.321C334.917 362.735 329.492 352.486 326.032 342.797C320.592 325.893 323.101 296.896 326.899 279.731C317.127 290.854 316.502 299.947 314.397 314.048C312.437 327.178 305.961 331.974 299.315 317.72C290.525 298.865 291.702 280.093 290.114 260.161C280.186 288.982 284.088 320.363 304.385 344.322C314.308 356.034 327.028 366.246 333.245 380.794C335.544 386.173 332.433 386.867 332.695 389.822C334.559 390.424 334.868 390.353 336.874 390.355C346.494 384.413 320.63 354.683 318.82 344.343C318.712 343.67 318.51 343.236 318.281 342.585C316.912 334.042 317.829 314.383 319.399 305.346C320.899 309.565 316.926 331.675 319.729 342.525C323.089 355.528 340.969 377.744 340.563 386.813C340.487 388.508 339.996 390.509 338.525 391.532C336.918 392.648 334.703 392.371 332.912 391.968C311.18 387.073 268.658 340.43 256.718 321.061C250.131 310.377 248.379 300.515 249.388 288.069C252.468 250.084 275.8 235.069 293.501 205.586C300.969 193.148 305.138 180.883 308.495 166.868C298.538 186.228 285.519 205.287 268.712 219.33C264.206 223.095 258.077 227.104 251.971 226.41C248.417 226.006 245.408 224.425 243.323 221.486C231.457 204.756 250.095 147.471 256.039 128.404C258.396 120.841 261.555 113.142 262.997 105.361L263.135 104.587C236.259 141.032 211.939 218.32 226.007 262.86C227.888 259.897 230.167 254.629 232.334 252.401C233.38 251.277 234.59 250.33 234.774 248.906C236.661 246.51 241.371 239.199 244.397 241.487C246.938 247.945 238.734 266.838 236.934 274.034C231.78 294.643 238.653 311.385 249.982 328.48C259.829 343.141 272.609 355.635 284.955 368.147C291.445 374.724 298.986 380.747 304.216 388.374C311.563 399.091 306.983 401.286 299.801 408.455C298.927 411.327 298.419 412.288 298.654 415.303L299.642 415.8C298.289 417.622 298.272 417.06 298.251 418.92C301.151 421.206 316.537 419.342 321.173 419.368C364.852 419.614 441.463 441.995 470.668 474.766C469.53 475.468 468.395 476.299 467.123 476.619Z"/><path fill="#E3904C" d="M241.203 247.366C242.367 251.774 235.995 264.662 234.754 269.816C224.755 311.204 259.864 346.065 287.134 372.011C292.42 377.041 309.529 390.884 305.584 399.801C305.148 400.785 300.861 404.386 299.573 404.657C298.792 388.437 292.218 385.178 281.327 374.453C275.678 368.925 271.012 362.465 265.683 356.61C237.544 325.692 203.401 286.967 241.203 247.366Z"/><path fill="#E3904C" d="M299.642 415.8C345.272 402.924 420.85 430.599 458.847 456.798C464.344 460.588 470.707 469.036 476.652 471.324L470.668 474.766C441.463 441.995 364.852 419.614 321.173 419.368C316.537 419.342 301.151 421.206 298.251 418.92C298.272 417.06 298.289 417.622 299.642 415.8Z"/><path fill="#A0693A" d="M443.043 371.291C452.087 373.76 457.044 372.99 459.535 362.84C461.51 354.791 460.152 346.02 460.637 338.014C461.043 331.32 466.833 304.225 473.346 301.949C474.119 302.198 475.534 302.852 475.565 303.836C476.5 333.593 477.884 364.238 477.322 394.016C476.678 428.083 465.378 436.425 492.776 460.815L489.592 462.92C485.123 457.431 474.713 447.88 473.058 441.273C468.179 421.786 473.589 396.836 473.621 376.749C473.657 354.177 472.572 332.006 472.877 309.762C467.266 322.823 463.872 333.785 463.859 348.2C463.85 359.129 464.196 380.308 447.606 377.303C438.166 375.593 428.645 359.552 423.718 351.805C424.111 355.69 424.467 357.947 425.277 361.767L423.761 362.604C422.655 358.681 420.836 350.771 422.275 346.946L423.226 346.458C427.207 347.969 433.136 359.479 436.212 363.667C438.25 366.413 440.537 368.965 443.043 371.291Z"/><path fill="#AC6B34" d="M298.654 415.303C320.553 404.045 367.017 413.405 390.988 421.042C419.105 430 456.458 445.142 475.948 469.19C476.238 469.547 476.545 470.813 476.652 471.324C470.707 469.036 464.344 460.588 458.847 456.798C420.85 430.599 345.272 402.924 299.642 415.8L298.654 415.303Z"/><path fill="#A0693A" d="M401.389 336.835C401.503 338.269 401.433 339.564 402.17 340.751C402.641 338.976 402.733 333.991 402.925 331.78C403.081 339.387 403.344 346.998 403.502 354.642C403.776 361.744 402.255 370.089 403.732 377.05C406.855 391.76 416.126 406.501 426.525 417.278C431.605 422.544 443.668 431.413 450.892 425.156C453.051 423.285 453.072 420.013 453.846 417.781C454.508 415.12 454.596 412.966 453.456 410.464C454.297 411.462 454.612 412.651 455.122 413.922L455.694 413.887C459.319 423.346 455.499 433.074 444.149 431.279C421.385 428.012 403.747 396.727 400.591 376.163C399.176 366.947 400.39 346.292 401.389 336.835Z"/><path fill="#AC6B34" d="M232.334 252.401C229.659 233.193 226.343 224.925 230.306 204.25C234.188 183.994 239.141 164.438 245.99 144.949C246.554 143.343 248.769 135.301 249.899 134.507C250.158 136.081 245.972 147.889 245.139 150.508C236.038 179.12 223.202 219.231 234.099 248.499L234.774 248.906C234.59 250.33 233.38 251.277 232.334 252.401Z"/><path fill="#A0693A" d="M423.761 362.604L425.277 361.767C429.425 373.977 432.339 378.504 440.954 388.637C443.205 391.285 447.799 396.968 449.325 399.965C449.651 401.637 450.201 402.177 449 403.51C437.122 386.087 431.212 384.726 423.761 362.604Z"/><path fill="#A0693A" d="M449.325 399.965C451.902 403.561 454.859 409.539 455.694 413.887L455.122 413.922C454.612 412.651 454.297 411.462 453.456 410.464C454.596 412.966 454.508 415.12 453.846 417.781C452.97 410.913 452.114 409.829 449 403.51C450.201 402.177 449.651 401.637 449.325 399.965Z"/><path fill="#AC6B34" d="M302.677 330.53C305.363 334.039 313.509 343.774 318.281 342.585C318.51 343.236 318.712 343.67 318.82 344.343C310.696 342.1 305.905 338.286 302.677 330.53Z"/><path fill="#AC6B34" d="M448.966 389.848C450.274 391.021 452.59 394.976 453.776 396.61C465.052 412.15 461.492 427.83 467.379 444.582C469.714 451.224 480.195 458.942 481.801 465.68C477.823 464.489 468.753 451.584 466.557 447.508C460.303 435.9 463.474 423.215 459.655 410.887C457.378 403.538 450.649 396.656 448.966 389.848Z"/><path fill="#AC6B34" d="M243.159 269.365C244.342 270.674 243.087 274.712 242.857 276.74C242.363 281.309 240.832 286.842 241.779 291.357C242.741 295.943 244.703 299.808 244.971 304.617C243.866 303.272 243.275 301.042 242.662 299.37C238.916 289.161 240.499 279.609 243.159 269.365Z"/><path fill="#AC6B34" d="M462.347 376.049C462.465 378.936 455.007 381.573 452.653 381.958C445.759 383.083 442.452 381.942 437.447 377.545C437.534 376.964 437.412 377.246 437.915 376.751C447.225 384.362 453.261 382.083 462.347 376.049Z"/></svg>